<svg xmlns="http://www.w3.org/2000/svg" width="1800" height="1250" viewBox="0 0 1800 1250">
  <defs>
    <marker id="arrow" viewBox="0 0 10 10" refX="9" refY="5" markerWidth="8" markerHeight="8" orient="auto-start-reverse">
      <path d="M 0 0 L 10 5 L 0 10 z" fill="#334155"/>
    </marker>
    <style>
      .bg { fill: #f8fafc; }
      .title { font: 700 34px Arial, sans-serif; fill: #0f172a; }
      .subtitle { font: 400 18px Arial, sans-serif; fill: #475569; }
      .group { fill: #ffffff; stroke: #cbd5e1; stroke-width: 2; rx: 14; }
      .groupTitle { font: 700 20px Arial, sans-serif; fill: #0f172a; }
      .node { fill: #eef6ff; stroke: #6aa5d9; stroke-width: 2; rx: 12; }
      .nodeApp { fill: #ecfdf5; stroke: #34d399; stroke-width: 2; rx: 12; }
      .nodeTool { fill: #fff7ed; stroke: #fb923c; stroke-width: 2; rx: 12; }
      .nodeStore { fill: #f5f3ff; stroke: #8b5cf6; stroke-width: 2; rx: 12; }
      .nodeText { font: 700 17px Arial, sans-serif; fill: #0f172a; }
      .nodeSmall { font: 400 14px Arial, sans-serif; fill: #475569; }
      .actor { fill: #f1f5f9; stroke: #94a3b8; stroke-width: 2; rx: 12; }
      .line { fill: none; stroke: #334155; stroke-width: 2.2; marker-end: url(#arrow); }
      .dash { fill: none; stroke: #64748b; stroke-width: 2; stroke-dasharray: 7 7; marker-end: url(#arrow); }
      .label { font: 400 13px Arial, sans-serif; fill: #334155; }
      .legendTitle { font: 700 16px Arial, sans-serif; fill: #0f172a; }
      .legendText { font: 400 14px Arial, sans-serif; fill: #475569; }
    </style>
  </defs>

  <rect class="bg" x="0" y="0" width="1800" height="1250"/>
  <text class="title" x="60" y="58">GerNetiX Serverprozesse, Applikationen und Abhaengigkeiten</text>
  <text class="subtitle" x="60" y="88">Lokale MVP-Sicht: HMI, Backend-Prozesse, Tools, Persistenz und wichtigste Service-Kanten</text>

  <rect class="actor" x="60" y="130" width="220" height="70"/>
  <text class="nodeText" x="88" y="160">Entwickler / Nutzer</text>
  <text class="nodeSmall" x="88" y="182">bedient User-Flows</text>

  <rect class="actor" x="60" y="225" width="220" height="70"/>
  <text class="nodeText" x="88" y="255">Admin / Support</text>
  <text class="nodeSmall" x="88" y="277">bedient Admin-API</text>

  <rect class="actor" x="60" y="320" width="220" height="70"/>
  <text class="nodeText" x="88" y="350">Codex</text>
  <text class="nodeSmall" x="88" y="372">nutzt Kontext/Graph</text>

  <rect class="group" x="340" y="125" width="360" height="470"/>
  <text class="groupTitle" x="365" y="160">Applikationen / HMI</text>

  <rect class="nodeApp" x="370" y="185" width="290" height="162"/>
  <text class="nodeText" x="395" y="215">GerNetiX Plattform UI</text>
  <text class="nodeSmall" x="395" y="238">ein Frontend-Artefakt :4300</text>
  <text class="nodeSmall" x="395" y="263">/app/auth und Dashboard</text>
  <text class="nodeSmall" x="395" y="288">Lernmodus /app/learn</text>
  <text class="nodeSmall" x="395" y="313">IDE-Modus /app/ide</text>
  <text class="nodeSmall" x="395" y="338">Guided-Code-Lesson-Einstieg</text>

  <rect class="nodeApp" x="370" y="365" width="290" height="72"/>
  <text class="nodeText" x="395" y="395">Context Manager HMI</text>
  <text class="nodeSmall" x="395" y="418">/context-manager/ :5050</text>

  <rect class="nodeApp" x="370" y="455" width="290" height="72"/>
  <text class="nodeText" x="395" y="485">SQLite Graph Explorer</text>
  <text class="nodeSmall" x="395" y="508">Tool UI :4318</text>

  <rect class="group" x="760" y="125" width="380" height="330"/>
  <text class="groupTitle" x="785" y="160">User- und Admin-nahe Server</text>

  <rect class="node" x="795" y="190" width="300" height="72"/>
  <text class="nodeText" x="820" y="220">Identity Server</text>
  <text class="nodeSmall" x="820" y="243">Login, Session, Plattform UI :4300</text>

  <rect class="node" x="795" y="285" width="300" height="72"/>
  <text class="nodeText" x="820" y="315">Admin Tool API</text>
  <text class="nodeSmall" x="820" y="338">Admin-/Support-Sichten :4600</text>

  <rect class="node" x="795" y="380" width="300" height="72"/>
  <text class="nodeText" x="820" y="410">Context Manager</text>
  <text class="nodeSmall" x="820" y="433">Vorschlaege, Context Packs :5050</text>

  <rect class="group" x="1210" y="125" width="520" height="720"/>
  <text class="groupTitle" x="1235" y="160">Domaenen-Serverprozesse</text>

  <rect class="node" x="1240" y="185" width="210" height="64"/>
  <text class="nodeText" x="1260" y="212">Project Server</text>
  <text class="nodeSmall" x="1260" y="234">:4800</text>

  <rect class="node" x="1485" y="185" width="210" height="64"/>
  <text class="nodeText" x="1505" y="212">Build &amp; Deploy</text>
  <text class="nodeSmall" x="1505" y="234">:4400</text>

  <rect class="node" x="1240" y="275" width="210" height="64"/>
  <text class="nodeText" x="1260" y="302">Device Management</text>
  <text class="nodeSmall" x="1260" y="324">:4700</text>

  <rect class="node" x="1485" y="275" width="210" height="64"/>
  <text class="nodeText" x="1505" y="302">Provisioning Tool</text>
  <text class="nodeSmall" x="1505" y="324">:4500</text>

  <rect class="node" x="1240" y="365" width="210" height="64"/>
  <text class="nodeText" x="1260" y="392">Recovery Tool</text>
  <text class="nodeSmall" x="1260" y="414">:5100</text>

  <rect class="node" x="1485" y="365" width="210" height="64"/>
  <text class="nodeText" x="1505" y="392">Hardware Shop</text>
  <text class="nodeSmall" x="1505" y="414">:4900</text>

  <rect class="node" x="1240" y="455" width="210" height="64"/>
  <text class="nodeText" x="1260" y="482">AI Usage Server</text>
  <text class="nodeSmall" x="1260" y="504">:5000</text>

  <rect class="node" x="1485" y="455" width="210" height="64"/>
  <text class="nodeText" x="1505" y="482">Community Platform</text>
  <text class="nodeSmall" x="1505" y="504">:5200</text>

  <rect class="node" x="1240" y="545" width="210" height="64"/>
  <text class="nodeText" x="1260" y="572">Community AI</text>
  <text class="nodeSmall" x="1260" y="594">Assistant :5300</text>

  <rect class="node" x="1485" y="545" width="210" height="64"/>
  <text class="nodeText" x="1505" y="572">Persistence Server</text>
  <text class="nodeSmall" x="1505" y="594">:5400</text>

  <rect class="group" x="340" y="690" width="390" height="220"/>
  <text class="groupTitle" x="365" y="725">Lokale Tools</text>

  <rect class="nodeTool" x="370" y="755" width="310" height="64"/>
  <text class="nodeText" x="395" y="782">E2E Demo Flow</text>
  <text class="nodeSmall" x="395" y="804">CLI Smoke-/Integrationslauf</text>

  <rect class="nodeTool" x="370" y="840" width="310" height="64"/>
  <text class="nodeText" x="395" y="867">YAML Graph SQLite Importer</text>
  <text class="nodeSmall" x="395" y="889">CLI Import/Validierung</text>

  <rect class="group" x="790" y="690" width="880" height="300"/>
  <text class="groupTitle" x="815" y="725">Persistenz / Wissensbasis</text>

  <rect class="nodeStore" x="830" y="760" width="250" height="80"/>
  <text class="nodeText" x="855" y="790">Runtime SQLite</text>
  <text class="nodeSmall" x="855" y="813">.runtime/gernetix-services.sqlite</text>

  <rect class="nodeStore" x="1125" y="760" width="250" height="80"/>
  <text class="nodeText" x="1150" y="790">Kanonischer Graph</text>
  <text class="nodeSmall" x="1150" y="813">model-graph.sqlite</text>

  <rect class="nodeStore" x="1420" y="760" width="210" height="80"/>
  <text class="nodeText" x="1445" y="790">Projektdateien</text>
  <text class="nodeSmall" x="1445" y="813">README, data, git</text>

  <line class="line" x1="280" y1="165" x2="370" y2="266"/>
  <line class="line" x1="280" y1="260" x2="795" y2="321"/>
  <line class="line" x1="280" y1="355" x2="370" y2="401"/>
  <line class="line" x1="280" y1="355" x2="370" y2="491"/>

  <line class="line" x1="660" y1="266" x2="795" y2="226"/>
  <line class="line" x1="660" y1="401" x2="795" y2="416"/>
  <line class="line" x1="660" y1="491" x2="1125" y2="800"/>

  <line class="line" x1="1095" y1="226" x2="1240" y2="217"/>
  <line class="line" x1="1095" y1="226" x2="1485" y2="217"/>
  <line class="line" x1="1095" y1="226" x2="1485" y2="397"/>
  <line class="line" x1="1095" y1="226" x2="1240" y2="307"/>
  <line class="line" x1="1095" y1="226" x2="1240" y2="487"/>
  <text class="label" x="1115" y="198">Plattform Adapter</text>

  <line class="line" x1="1095" y1="321" x2="1240" y2="307"/>
  <line class="line" x1="1095" y1="321" x2="1240" y2="217"/>
  <line class="line" x1="1095" y1="321" x2="1240" y2="487"/>
  <text class="label" x="1110" y="342">Admin liest/steuert</text>

  <line class="line" x1="1485" y1="307" x2="1450" y2="307"/>
  <line class="line" x1="1240" y1="397" x2="1240" y2="339"/>
  <line class="line" x1="1240" y1="577" x2="1485" y2="487"/>
  <line class="line" x1="1240" y1="577" x2="1240" y2="519"/>

  <line class="line" x1="1095" y1="416" x2="1420" y2="800"/>
  <line class="line" x1="1095" y1="416" x2="830" y2="800"/>
  <line class="line" x1="1095" y1="416" x2="1125" y2="800"/>

  <line class="line" x1="680" y1="787" x2="1485" y2="307"/>
  <line class="line" x1="680" y1="787" x2="1240" y2="397"/>
  <line class="line" x1="680" y1="787" x2="1240" y2="307"/>
  <line class="line" x1="680" y1="787" x2="1240" y2="487"/>
  <line class="line" x1="680" y1="872" x2="1125" y2="800"/>
  <line class="line" x1="1420" y1="800" x2="680" y2="872"/>

  <line class="dash" x1="1345" y1="249" x2="940" y2="760"/>
  <line class="dash" x1="1590" y1="249" x2="960" y2="760"/>
  <line class="dash" x1="1345" y1="339" x2="980" y2="760"/>
  <line class="dash" x1="1590" y1="339" x2="1000" y2="760"/>
  <line class="dash" x1="1345" y1="429" x2="1020" y2="760"/>
  <line class="dash" x1="1590" y1="429" x2="1040" y2="760"/>
  <line class="dash" x1="1345" y1="519" x2="900" y2="760"/>
  <line class="dash" x1="1590" y1="519" x2="920" y2="760"/>
  <line class="dash" x1="1345" y1="609" x2="1060" y2="760"/>
  <line class="dash" x1="1590" y1="609" x2="1080" y2="760"/>

  <rect class="group" x="60" y="1040" width="1670" height="120"/>
  <text class="legendTitle" x="90" y="1075">Legende</text>
  <rect class="nodeApp" x="90" y="1095" width="34" height="24"/>
  <text class="legendText" x="135" y="1113">Applikation / HMI</text>
  <rect class="node" x="310" y="1095" width="34" height="24"/>
  <text class="legendText" x="355" y="1113">Serverprozess / API</text>
  <rect class="nodeTool" x="560" y="1095" width="34" height="24"/>
  <text class="legendText" x="605" y="1113">lokales Tool / CLI</text>
  <rect class="nodeStore" x="790" y="1095" width="34" height="24"/>
  <text class="legendText" x="835" y="1113">Persistenz / Wissensbasis</text>
  <line class="line" x1="1080" y1="1108" x2="1140" y2="1108"/>
  <text class="legendText" x="1155" y="1113">HTTP-/Nutzungsabhaengigkeit</text>
  <line class="dash" x1="1400" y1="1108" x2="1460" y2="1108"/>
  <text class="legendText" x="1475" y="1113">direkte SQLite-State-Persistenz</text>
</svg>
