<svg xmlns="http://www.w3.org/2000/svg" width="1680" height="980" viewBox="0 0 1680 980" role="img" aria-labelledby="title desc">
  <title id="title">GerNetiX Serverprozesse und Applikationen</title>
  <desc id="desc">Aktuelle lokale MVP-Architektur mit Plattform UI, Identity Server, AI Context Prompt-Grundlagen und Architektur-Bausteinen, SQL-only Persistenz, Hardware Catalog, Hardware Shop, Device Management, Provisioning, Recovery, Build, MQTT Broker und weiteren Services.</desc>
  <defs>
    <marker id="arrow" viewBox="0 0 10 10" refX="9" refY="5" markerWidth="8" markerHeight="8" orient="auto-start-reverse">
      <path d="M 0 0 L 10 5 L 0 10 z" fill="#334155"/>
    </marker>
    <style>
      .bg { fill: #f8fafc; }
      .cluster { fill: #ffffff; stroke: #cbd5e1; stroke-width: 1.5; rx: 14; }
      .clusterTitle { fill: #0f766e; font: 700 16px Segoe UI, Arial, sans-serif; }
      .node { fill: #ffffff; stroke: #94a3b8; stroke-width: 1.5; rx: 10; }
      .app { fill: #ecfdf5; stroke: #0f766e; }
      .edge { fill: #eff6ff; stroke: #2563eb; }
      .domain { fill: #fff7ed; stroke: #ea580c; }
      .tool { fill: #f5f3ff; stroke: #7c3aed; }
      .store { fill: #f1f5f9; stroke: #475569; }
      .actor { fill: #e0f2fe; stroke: #0284c7; }
      .titleText { fill: #0f172a; font: 700 15px Segoe UI, Arial, sans-serif; }
      .smallText { fill: #475569; font: 12px Segoe UI, Arial, sans-serif; }
      .label { fill: #334155; font: 11px Segoe UI, Arial, sans-serif; }
      .line { fill: none; stroke: #334155; stroke-width: 1.4; marker-end: url(#arrow); }
      .dashed { stroke-dasharray: 6 5; }
    </style>
  </defs>

  <rect class="bg" width="1680" height="980"/>
  <text x="40" y="42" class="titleText" style="font-size:24px">GerNetiX Serverprozesse und Applikationen</text>
  <text x="40" y="67" class="smallText">Lokaler MVP-Zuschnitt: UIs, Adapter-Server, Domaenenservices, Tools und SQL-only Persistenz</text>

  <g id="actors">
    <rect class="node actor" x="40" y="110" width="150" height="62" rx="10"/>
    <text class="titleText" x="115" y="136" text-anchor="middle">Nutzer</text>
    <text class="smallText" x="115" y="156" text-anchor="middle">Entwickler</text>

    <rect class="node actor" x="40" y="195" width="150" height="62" rx="10"/>
    <text class="titleText" x="115" y="221" text-anchor="middle">Admin</text>
    <text class="smallText" x="115" y="241" text-anchor="middle">Support</text>

    <rect class="node actor" x="40" y="280" width="150" height="62" rx="10"/>
    <text class="titleText" x="115" y="316" text-anchor="middle">Codex</text>
  </g>

  <g id="applications">
    <rect class="cluster" x="240" y="95" width="310" height="390" rx="14"/>
    <text class="clusterTitle" x="260" y="124">Applikationen / HMI</text>

    <rect class="node app" x="265" y="150" width="260" height="74" rx="10"/>
    <text class="titleText" x="395" y="178" text-anchor="middle">GerNetiX Plattform UI</text>
    <text class="smallText" x="395" y="198" text-anchor="middle">/app/dashboard, learn, dev-platform</text>
    <text class="smallText" x="395" y="216" text-anchor="middle">/app/ide :4300</text>

    <rect class="node app" x="265" y="245" width="260" height="64" rx="10"/>
    <text class="titleText" x="395" y="273" text-anchor="middle">Recovery Tool HMI</text>
    <text class="smallText" x="395" y="293" text-anchor="middle">Board retten / USB Recovery :5100</text>

    <rect class="node app" x="265" y="330" width="260" height="64" rx="10"/>
    <text class="titleText" x="395" y="358" text-anchor="middle">Provisioning Tool HMI</text>
    <text class="smallText" x="395" y="378" text-anchor="middle">Factory USB Provisioning :4500</text>

    <rect class="node app" x="265" y="415" width="122" height="44" rx="10"/>
    <text class="titleText" x="326" y="442" text-anchor="middle">Context HMI</text>

    <rect class="node app" x="403" y="415" width="122" height="44" rx="10"/>
    <text class="titleText" x="464" y="435" text-anchor="middle">SQLite Graph</text>
    <text class="smallText" x="464" y="452" text-anchor="middle">Explorer</text>
  </g>

  <g id="edgeServices">
    <rect class="cluster" x="610" y="95" width="270" height="275" rx="14"/>
    <text class="clusterTitle" x="630" y="124">User-/Admin-nahe Server</text>

    <rect class="node edge" x="635" y="150" width="220" height="58" rx="10"/>
    <text class="titleText" x="745" y="176" text-anchor="middle">Identity Server</text>
    <text class="smallText" x="745" y="196" text-anchor="middle">:4300</text>

    <rect class="node edge" x="635" y="230" width="220" height="58" rx="10"/>
    <text class="titleText" x="745" y="256" text-anchor="middle">Admin Tool API</text>
    <text class="smallText" x="745" y="276" text-anchor="middle">:4600</text>

    <rect class="node edge" x="635" y="310" width="220" height="40" rx="10"/>
    <text class="titleText" x="745" y="335" text-anchor="middle">Context Manager :5050</text>
  </g>

  <g id="domainServices">
    <rect class="cluster" x="940" y="95" width="660" height="585" rx="14"/>
    <text class="clusterTitle" x="960" y="124">Domaenen-Serverprozesse</text>

    <rect class="node domain" x="965" y="150" width="180" height="54" rx="10"/>
    <text class="titleText" x="1055" y="174" text-anchor="middle">Project Server</text>
    <text class="smallText" x="1055" y="193" text-anchor="middle">:4800</text>

    <rect class="node domain" x="1170" y="150" width="190" height="54" rx="10"/>
    <text class="titleText" x="1265" y="174" text-anchor="middle">Build &amp; Deploy</text>
    <text class="smallText" x="1265" y="193" text-anchor="middle">USB Flash + OTA :4400</text>

    <rect class="node domain" x="1385" y="150" width="190" height="54" rx="10"/>
    <text class="titleText" x="1480" y="174" text-anchor="middle">Device Management</text>
    <text class="smallText" x="1480" y="193" text-anchor="middle">:4700</text>

    <rect class="node domain" x="965" y="235" width="180" height="54" rx="10"/>
    <text class="titleText" x="1055" y="259" text-anchor="middle">Provisioning Tool</text>
    <text class="smallText" x="1055" y="278" text-anchor="middle">:4500</text>

    <rect class="node domain" x="1170" y="235" width="190" height="54" rx="10"/>
    <text class="titleText" x="1265" y="259" text-anchor="middle">Recovery Tool</text>
    <text class="smallText" x="1265" y="278" text-anchor="middle">:5100</text>

    <rect class="node domain" x="1385" y="235" width="190" height="54" rx="10"/>
    <text class="titleText" x="1480" y="259" text-anchor="middle">Hardware Catalog</text>
    <text class="smallText" x="1480" y="278" text-anchor="middle">:4910</text>

    <rect class="node domain" x="965" y="320" width="180" height="54" rx="10"/>
    <text class="titleText" x="1055" y="344" text-anchor="middle">Hardware Shop</text>
    <text class="smallText" x="1055" y="363" text-anchor="middle">:4900</text>

    <rect class="node domain" x="1170" y="320" width="190" height="54" rx="10"/>
    <text class="titleText" x="1265" y="344" text-anchor="middle">AI Usage Server</text>
    <text class="smallText" x="1265" y="363" text-anchor="middle">:5000</text>

    <rect class="node domain" x="1385" y="320" width="190" height="54" rx="10"/>
    <text class="titleText" x="1480" y="344" text-anchor="middle">Persistence Server</text>
    <text class="smallText" x="1480" y="363" text-anchor="middle">:5400</text>

    <rect class="node domain" x="965" y="405" width="180" height="54" rx="10"/>
    <text class="titleText" x="1055" y="429" text-anchor="middle">Community Platform</text>
    <text class="smallText" x="1055" y="448" text-anchor="middle">:5200</text>

    <rect class="node domain" x="1170" y="405" width="190" height="54" rx="10"/>
    <text class="titleText" x="1265" y="429" text-anchor="middle">Community AI</text>
    <text class="smallText" x="1265" y="448" text-anchor="middle">Assistant :5300</text>

    <rect class="node domain" x="1385" y="405" width="190" height="54" rx="10"/>
    <text class="titleText" x="1480" y="429" text-anchor="middle">AI Context</text>
    <text class="smallText" x="1480" y="448" text-anchor="middle">Grants + Policy + Prompts + Bausteine :5500</text>
  </g>

  <g id="tools">
    <rect class="cluster" x="240" y="530" width="310" height="145" rx="14"/>
    <text class="clusterTitle" x="260" y="559">Lokale Tools</text>
    <rect class="node tool" x="265" y="585" width="122" height="54" rx="10"/>
    <text class="titleText" x="326" y="608" text-anchor="middle">E2E Demo</text>
    <text class="smallText" x="326" y="627" text-anchor="middle">CLI</text>
    <rect class="node tool" x="403" y="585" width="122" height="54" rx="10"/>
    <text class="titleText" x="464" y="608" text-anchor="middle">YAML Graph</text>
    <text class="smallText" x="464" y="627" text-anchor="middle">Importer</text>
  </g>

  <g id="deviceRuntime">
    <rect class="cluster" x="1420" y="530" width="220" height="145" rx="14"/>
    <text class="clusterTitle" x="1440" y="559">Device Runtime</text>
    <rect class="node edge" x="1445" y="585" width="170" height="58" rx="10"/>
    <text class="titleText" x="1530" y="609" text-anchor="middle">ESP32 Basissoftware</text>
    <text class="smallText" x="1530" y="629" text-anchor="middle">MQTT Client + HTTPS OTA</text>
  </g>

  <g id="platformInfrastructure">
    <rect class="cluster" x="1420" y="735" width="220" height="205" rx="14"/>
    <text class="clusterTitle" x="1440" y="764">Infrastruktur</text>
    <rect class="node tool" x="1445" y="790" width="170" height="48" rx="10"/>
    <text class="titleText" x="1530" y="812" text-anchor="middle">MQTT Broker</text>
    <text class="smallText" x="1530" y="830" text-anchor="middle">:1883 / WS :9001</text>
    <rect class="node tool" x="1445" y="852" width="170" height="34" rx="10"/>
    <text class="titleText" x="1530" y="875" text-anchor="middle">Ollama :11434</text>
    <rect class="node tool" x="1445" y="900" width="170" height="28" rx="10"/>
    <text class="smallText" x="1530" y="918" text-anchor="middle">OpenAI / Claude API</text>
  </g>

  <g id="storage">
    <rect class="cluster" x="610" y="735" width="790" height="205" rx="14"/>
    <text class="clusterTitle" x="630" y="764">SQL-Persistenz / Wissensbasis</text>

    <rect class="node store" x="635" y="795" width="220" height="62" rx="10"/>
    <text class="titleText" x="745" y="820" text-anchor="middle">Runtime SQLite</text>
    <text class="smallText" x="745" y="840" text-anchor="middle">.runtime/gernetix-services.sqlite</text>

    <rect class="node store" x="895" y="795" width="220" height="62" rx="10"/>
    <text class="titleText" x="1005" y="820" text-anchor="middle">Kanonischer Graph</text>
    <text class="smallText" x="1005" y="840" text-anchor="middle">model-graph.sqlite</text>

    <rect class="node store" x="1155" y="795" width="220" height="62" rx="10"/>
    <text class="titleText" x="1265" y="820" text-anchor="middle">Projektdateien</text>
    <text class="smallText" x="1265" y="840" text-anchor="middle">keine Runtime-Persistenz</text>

    <rect class="node store" x="895" y="870" width="220" height="46" rx="10"/>
    <text class="titleText" x="1005" y="890" text-anchor="middle">AI Context SQLite</text>
    <text class="smallText" x="1005" y="908" text-anchor="middle">gernetix-ai-context.sqlite</text>
  </g>

  <path class="line" d="M 190 141 L 265 187"/>
  <path class="line" d="M 190 226 L 265 362"/>
  <path class="line" d="M 190 226 L 635 259"/>
  <path class="line" d="M 190 311 L 265 437"/>
  <path class="line" d="M 190 311 L 403 437"/>

  <path class="line" d="M 525 187 L 635 179"/>
  <path class="line" d="M 525 277 L 1170 262"/>
  <path class="line" d="M 525 362 L 965 262"/>
  <path class="line" d="M 387 437 L 635 330"/>
  <path class="line" d="M 525 437 L 895 826"/>

  <path class="line" d="M 855 179 L 965 177"/>
  <path class="line" d="M 855 179 L 1170 177"/>
  <path class="line" d="M 855 179 L 1385 177"/>
  <path class="line" d="M 855 179 L 1385 262"/>
  <path class="line" d="M 855 179 L 965 347"/>
  <path class="line" d="M 855 179 L 1170 347"/>
  <path class="line" d="M 855 179 L 1385 432"/>
  <path class="line" d="M 855 179 L 1445 869"/>
  <path class="line" d="M 855 179 L 1445 914"/>
  <path class="line" d="M 855 259 L 1385 177"/>
  <path class="line" d="M 855 259 L 965 177"/>
  <path class="line" d="M 855 259 L 1385 432"/>
  <path class="line" d="M 855 330 L 1155 826"/>
  <path class="line" d="M 855 330 L 1005 826"/>

  <path class="line" d="M 1145 347 L 1385 262"/>
  <text class="label" x="1200" y="326">liest Hardwaredaten</text>
  <path class="line" d="M 1145 262 L 1385 177"/>
  <path class="line" d="M 1360 262 L 1385 177"/>
  <path class="line" d="M 1360 432 L 1170 347"/>
  <path class="line" d="M 1170 432 L 1145 432"/>
  <path class="line" d="M 1265 204 L 1530 795"/>
  <text class="label" x="1378" y="483">Deploy-Command</text>
  <path class="line" d="M 1530 795 L 1530 643"/>
  <text class="label" x="1540" y="718">MQTT</text>
  <path class="line" d="M 1530 585 L 1530 795"/>
  <text class="label" x="1540" y="694">Status</text>
  <path class="line dashed" d="M 1445 614 L 1360 177"/>
  <text class="label" x="1368" y="380">Firmware HTTPS</text>

  <path class="line dashed" d="M 1055 204 L 745 795"/>
  <path class="line dashed" d="M 1265 204 L 745 795"/>
  <path class="line dashed" d="M 1480 204 L 745 795"/>
  <path class="line dashed" d="M 1055 289 L 745 795"/>
  <path class="line dashed" d="M 1265 289 L 745 795"/>
  <path class="line dashed" d="M 1480 289 L 745 795"/>
  <path class="line dashed" d="M 1055 374 L 745 795"/>
  <path class="line dashed" d="M 1265 374 L 745 795"/>
  <path class="line dashed" d="M 1480 374 L 745 795"/>
  <path class="line dashed" d="M 1055 459 L 745 795"/>
  <path class="line dashed" d="M 1265 459 L 745 795"/>
  <path class="line dashed" d="M 1480 459 L 1005 870"/>

  <path class="line" d="M 387 612 L 965 262"/>
  <path class="line" d="M 387 612 L 1170 262"/>
  <path class="line" d="M 387 612 L 1385 177"/>
  <path class="line" d="M 525 612 L 1005 795"/>
  <path class="line" d="M 1155 826 L 1005 826"/>

  <g id="legend">
    <rect class="cluster" x="40" y="735" width="500" height="170" rx="14"/>
    <text class="clusterTitle" x="60" y="764">Onboarding-Regel</text>
    <text class="smallText" x="60" y="795">Device-Onboarding laeuft in der IDE/Plattform UI, nicht als eigener Backend-Service.</text>
    <text class="smallText" x="60" y="820">Das IDE-Onboarding-Model leitet den Flow aus Hardware-Catalog-Capabilities ab.</text>
    <text class="smallText" x="60" y="845">Kurzer Board-Name erzeugt den gernetix-* Node-/SSID-/Hostnamen.</text>
    <text class="smallText" x="60" y="870">Seriennummer und Instanz-Konfiguration werden im Device Inventory gespeichert.</text>
  </g>
</svg>
